<svg t="1747538039484" class="icon" viewBox="0 0 1024 1024" version="1.1" xmlns="http://www.w3.org/2000/svg" p-id="16179" width="32" height="32"><path d="M289 597.1c-17.2 27-27.2 59.1-27.2 93.5v10.3c0 50.3 77 50.3 174.4 50.3h103.5c83.4 0 156.6 0 171.7-35.5 1.8-4.4 2.8-9.2 2.8-14.8" fill="#F8B62D" p-id="16180"></path><path d="M544.4 501H443.6c-93.8 0-170 76.3-170 170.2v10.1c0 49 75.1 49 170 49h100.9c91.3 0 170 0 170-49v-10.1c0-93.8-76.3-170.2-170.1-170.2z" fill="#FDD72C" p-id="16181"></path><path d="M495.9 487.9c-71.3 0-129.2-57.3-129.2-127.9 0-69.5 56-126.1 125.8-127.9H489c-74.2 0-140.1 52.4-140.1 124.8 0 72.3 60.5 131.2 134.7 131.2 57.5 0 112.1-28.8 131.4-78.3-19.7 45.8-65.6 78.1-119.1 78.1z" fill="#F8B62D" p-id="16182"></path><path d="M366.7 359.9c0 70.6 57.8 127.9 129.2 127.9 53.5 0 99.4-32.2 119-78.1 5.6-14.4 8.7-30.1 8.7-46.4 0-71.2-58.6-129.3-131.2-131.2-69.7 1.7-125.7 58.4-125.7 127.8z" fill="#FDD72C" p-id="16183"></path><path d="M844.5 839.4h-37.3c-5.1 0-9.2-3.3-9.2-7.3s4.2-7.3 9.2-7.3h37.3c5.1 0 9.2 3.3 9.2 7.3s-4.1 7.3-9.2 7.3zM770.2 839.4h-22.1c-5.1 0-9.2-3.3-9.2-7.3s4.2-7.3 9.2-7.3h22.1c5.1 0 9.2 3.3 9.2 7.3s-4.1 7.3-9.2 7.3zM708.9 839.4H266.1c-5.1 0-9.2-3.3-9.2-7.3s4.2-7.3 9.2-7.3h442.8c5.1 0 9.2 3.3 9.2 7.3 0.2 4-4 7.3-9.2 7.3zM213 839.4h-33.4c-5.1 0-9.2-3.3-9.2-7.3s4.2-7.3 9.2-7.3H213c5.1 0 9.2 3.3 9.2 7.3s-4 7.3-9.2 7.3z" fill="" p-id="16184"></path><path d="M563.1 739.8H459.6c-50.1 0-93.3 0-125.7-6.5-18.3-3.7-31.9-9.2-41.5-17-11.5-9.3-17.3-21.7-17.3-36.9V669c0-55.3 16.9-96.4 53.2-129.6 4.1-3.7 10.4-3.4 14.1 0.6s3.4 10.4-0.6 14.1c-31.8 29.1-46.6 65.6-46.6 114.8v10.4c0 22.6 21.6 30 42.6 34.2 30.5 6.1 72.8 6.1 121.8 6.1h103.5c46 0 89.5 0 120.4-6.1 39.1-7.7 44.1-22.3 44.1-34.2V669c-0.1-90.8-73.9-164.7-164.6-164.7H459.6c-26.5 0-39.5 2.5-60.8 11.5-5.1 2.2-11-0.2-13.1-5.3-2.2-5.1 0.2-11 5.3-13.1 23.6-10 39.7-13.1 68.6-13.1H563c101.7 0 184.5 82.9 184.6 184.7v10.3c0 15.2-6 27.6-17.9 37-9.8 7.7-23.7 13.2-42.3 16.9-32.9 6.6-77.3 6.6-124.3 6.6z" fill="#231815" p-id="16185"></path><path d="M358.6 537.4c-3.3 0-6.6-1.7-8.5-4.7-2.9-4.7-1.5-10.9 3.2-13.8 0.6-0.4 2.9-2 4.6-3.1 2.7-1.9 4.5-3.1 5.4-3.7 4.7-2.9 10.9-1.5 13.8 3.2 2.9 4.7 1.5 10.9-3.2 13.8-0.6 0.4-2.9 2-4.6 3.1-2.7 1.9-4.5 3.1-5.4 3.7-1.6 1-3.5 1.5-5.3 1.5zM644.1 356.8c-5.5 0-10-4.5-10-10 0-8-0.5-12.4-2.3-20.2-1.2-5.4 2.2-10.7 7.5-12 5.4-1.2 10.7 2.2 12 7.5 2.1 9.3 2.7 15.1 2.7 24.6 0.1 5.6-4.4 10.1-9.9 10.1z" fill="#231815" p-id="16186"></path><path d="M506.1 491.3C424.4 491.3 358 428.4 358 351c0-77.3 66.4-140.2 148-140.2 53.1 0 102.5 27.2 128.8 71.1l1 1.5c2.1 3.4 2.7 4.4 4.8 9.1 2.3 5 0 11-5 13.2-5 2.3-11 0-13.2-5-1.6-3.6-1.8-3.9-3.5-6.7l-1-1.6-0.1-0.1c-22.7-37.9-65.6-61.4-111.7-61.4-70.6 0-128 53.9-128 120.2 0 66.3 57.5 120.3 128.1 120.3 32 0 62.2-9.4 85-26.5 23.2-17.4 37.7-41.4 41.8-69.5 0.8-5.5 5.9-9.2 11.3-8.4 5.5 0.8 9.2 5.9 8.4 11.3-9.8 66.5-70.1 113-146.6 113z" fill="#231815" p-id="16187"></path><path d="M285.5 206.6c0-17.5 14.2-31.7 31.7-31.7s31.7 14.2 31.7 31.7-14.2 31.7-31.7 31.7c-17.6 0.2-31.7-14-31.7-31.7z m15.6 0c0 9 7.3 16.2 16.2 16.2 9 0 16.2-7.3 16.2-16.2 0-8.8-7.3-16.2-16.2-16.2-9 0.1-16.2 7.4-16.2 16.2z" fill="#47B7F8" p-id="16188"></path><path d="M831.5 288.9h13.9V275c0-3.8 3-6.8 6.8-6.8s6.8 3 6.8 6.8v13.9h13.9c3.8 0 6.8 3 6.8 6.8s-3 6.8-6.8 6.8H859v13.9c0 3.8-3 6.8-6.8 6.8-3.6 0-6.8-3-6.8-6.8v-13.9h-13.9c-3.6 0-6.8-3-6.8-6.8s3.2-6.8 6.8-6.8zM64.6 415.7h13.9v-13.9c0-3.8 3-6.8 6.8-6.8s6.8 3 6.8 6.8v13.9H106c3.8 0 6.8 3 6.8 6.8s-3 6.8-6.8 6.8H92v13.9c0 3.8-3 6.8-6.8 6.8-3.6 0-6.8-3-6.8-6.8v-13.9h-14c-3.6 0-6.8-3-6.8-6.8 0.2-3.9 3.4-6.8 7-6.8z" fill="#F7E42F" p-id="16189"></path><path d="M911.9 622.1h16.2v-16.2c0-4.3 3.4-7.9 7.9-7.9 4.3 0 7.9 3.4 7.9 7.9v16.2h16.2c4.3 0 7.9 3.4 7.9 7.9 0 4.4-3.4 7.9-7.9 7.9h-16.2v16.2c0 4.3-3.4 7.9-7.9 7.9-4.3 0-7.9-3.4-7.9-7.9v-16.2h-16.2c-4.3 0-7.9-3.4-7.9-7.9 0.2-4.3 3.6-7.9 7.9-7.9zM714.2 218.4c0 6.4 5.2 11.7 11.7 11.7s11.7-5.2 11.7-11.7c0-6.4-5.2-11.7-11.7-11.7-6.4 0.1-11.7 5.3-11.7 11.7zM186.9 280.1c0 8.7 7 15.6 15.6 15.6 8.7 0 15.6-7 15.6-15.6 0-8.7-7-15.6-15.6-15.6s-15.6 6.9-15.6 15.6z" fill="#F8B62D" p-id="16190"></path><path d="M802.9 391.2c0 5.5 3 10.7 7.9 13.6 4.9 2.8 10.9 2.8 15.6 0 4.9-2.8 7.9-8.1 7.9-13.6s-3-10.7-7.9-13.6c-4.9-2.8-10.9-2.8-15.6 0-4.9 2.7-7.9 8-7.9 13.6z" fill="#F7E42F" p-id="16191"></path><path d="M787.4 534c0-17.5 14.2-31.7 31.7-31.7s31.7 14.2 31.7 31.7-14.2 31.7-31.7 31.7c-17.3 0.1-31.7-14.4-31.7-31.7z m15.7 0c0 9 7.3 16.2 16.2 16.2 9 0 16.2-7.3 16.2-16.2 0-8.8-7.3-16.2-16.2-16.2-8.9 0-16.2 7.3-16.2 16.2z" fill="#F8B62D" p-id="16192"></path><path d="M200.3 535.9c1.7-1.7 4.4-1.7 6.2 0 0.8 0.8 1.3 1.9 1.3 3s-0.5 2.2-1.3 3l-13.9 13.9c-0.8 0.8-1.9 1.3-3 1.3s-2.2-0.5-3-1.3c-1.7-1.7-1.7-4.4 0-6.2l13.7-13.7z m-36.7 36.7c0.8-0.8 1.9-1.3 3-1.3s2.2 0.5 3 1.3c1.7 1.7 1.7 4.4 0 6.2l-13.9 13.9c-0.8 0.8-1.9 1.3-3 1.3s-2.2-0.5-3-1.3-1.3-1.9-1.3-3 0.5-2.2 1.3-3l13.9-14.1z m3.1-15.4c-1.1 0-2.2-0.5-3-1.3L149.8 542c-0.8-0.8-1.3-1.9-1.3-3s0.5-2.2 1.3-3c1.7-1.7 4.4-1.7 6.2 0l13.9 13.9c1.7 1.7 1.7 4.4 0 6.2-1 0.5-2.1 1.1-3.2 1.1z m25.7 15.4l13.9 13.9c0.8 0.8 1.3 1.9 1.3 3s-0.5 2.2-1.3 3-1.9 1.3-3 1.3-2.2-0.5-3-1.3l-13.9-13.9c-1.7-1.7-1.7-4.4 0-6.2 1.6-1.5 4.4-1.5 6 0.2z m-2.6-8.5c0-2.4 1.9-4.4 4.3-4.4h19.6c2.4 0 4.3 1.9 4.3 4.4 0 2.4-1.9 4.3-4.3 4.3H194c-2.3 0-4.2-1.9-4.2-4.3z m-47.5-4.3h19.6c2.4 0 4.4 1.9 4.4 4.4 0 2.4-1.9 4.3-4.4 4.3h-19.6c-2.4 0-4.4-1.9-4.4-4.3 0.1-2.4 2-4.4 4.4-4.4z m35.8-35.6c2.4 0 4.4 1.9 4.4 4.3V548c0 2.4-1.9 4.3-4.4 4.3-2.4 0-4.3-1.9-4.3-4.3v-19.6c-0.2-2.4 1.9-4.2 4.3-4.2z m0 51.8c2.4 0 4.4 1.9 4.4 4.4V600c0 2.4-1.9 4.4-4.4 4.4-2.4 0-4.3-1.9-4.3-4.4v-19.6c-0.2-2.5 1.9-4.4 4.3-4.4z" fill="#FAEE00" p-id="16193"></path><path d="M556.1 113.1c1.7-1.7 4.4-1.7 6.2 0 0.8 0.8 1.3 1.9 1.3 3s-0.5 2.2-1.3 3L548.4 133c-0.8 0.8-1.9 1.3-3 1.3s-2.2-0.5-3-1.3c-1.7-1.7-1.7-4.4 0-6.2l13.7-13.7z m-36.6 36.8c0.8-0.8 1.9-1.3 3-1.3s2.2 0.5 3 1.3c1.7 1.7 1.7 4.4 0 6.2L511.6 170c-0.8 0.8-1.9 1.3-3 1.3s-2.2-0.5-3-1.3-1.3-1.9-1.3-3 0.5-2.2 1.3-3l13.9-14.1z m3.2-15.5c-1.1 0-2.2-0.5-3-1.3l-13.9-13.9c-0.8-0.8-1.3-1.9-1.3-3s0.5-2.2 1.3-3c1.7-1.7 4.4-1.7 6.2 0l13.9 13.9c1.7 1.7 1.7 4.4 0 6.2-1 0.8-2.1 1.1-3.2 1.1z m25.7 15.5l13.9 13.9c0.8 0.8 1.3 1.9 1.3 3s-0.5 2.2-1.3 3-1.9 1.3-3 1.3-2.2-0.5-3-1.3l-13.9-13.9c-1.7-1.7-1.7-4.4 0-6.2 1.6-1.5 4.4-1.5 6 0.2z m-2.5-8.4c0-2.4 1.9-4.4 4.3-4.4h19.6c2.4 0 4.3 1.9 4.3 4.4 0 2.4-1.9 4.3-4.3 4.3h-19.6c-2.4-0.1-4.3-1.9-4.3-4.3z m-47.5-4.2H518c2.4 0 4.4 1.9 4.4 4.4 0 2.4-1.9 4.3-4.4 4.3h-19.6c-2.4 0-4.4-1.9-4.4-4.3s1.9-4.4 4.4-4.4z m35.6-35.8c2.4 0 4.4 1.9 4.4 4.3v19.6c0 2.4-1.9 4.3-4.4 4.3-2.4 0-4.3-1.9-4.3-4.3v-19.6c0-2.3 1.8-4.3 4.3-4.3z m0 51.8c2.4 0 4.4 1.9 4.4 4.4v19.5c0 2.4-1.9 4.4-4.4 4.4-2.4 0-4.3-1.9-4.3-4.4v-19.6c0-2.4 1.8-4.3 4.3-4.3z" fill="#F8B62D" p-id="16194"></path></svg>